<svg width="2269" height="66" viewBox="0 0 2269 66" fill="none" xmlns="http://www.w3.org/2000/svg">
<g clip-path="url(#clip0_283_21758)">
<path fill-rule="evenodd" clip-rule="evenodd" d="M0 0H2269V65.3594H0V0Z" fill="#FF8000"/>
<path d="M57.0985 37.2499C57.0062 39.2146 56.4756 40.9528 55.5013 42.4594C54.5343 43.9659 53.1708 45.1301 51.4233 45.9595C49.6668 46.7851 47.6676 47.2016 45.4167 47.2016C41.7008 47.2016 38.7799 45.992 36.6486 43.5729C34.51 41.1574 33.4434 37.7406 33.4434 33.3279V31.9319C33.4434 29.1651 33.9269 26.7406 34.8939 24.6691C35.8536 22.5868 37.2443 20.988 39.0516 19.8526C40.8606 18.7209 42.9594 18.1614 45.337 18.1614C48.7668 18.1614 51.5211 19.0595 53.6018 20.8684C55.6879 22.6665 56.8667 25.1598 57.151 28.3213H50.3621C50.3096 26.6012 49.8805 25.3644 49.0656 24.6094C48.2507 23.8616 47.0048 23.4831 45.337 23.4831C43.6421 23.4831 42.4035 24.1169 41.6157 25.3825C40.8262 26.6537 40.4097 28.6835 40.3699 31.4683V33.4674C40.3699 36.4804 40.7483 38.6406 41.5089 39.9388C42.264 41.2317 43.5678 41.8799 45.4167 41.8799C46.9795 41.8799 48.1783 41.5087 49.0058 40.7718C49.8334 40.0312 50.2698 38.8578 50.3241 37.2499H57.0985ZM76.3696 41.5178H67.0383L65.4085 46.8032H58.1307L68.496 18.5544H74.8919L85.3351 46.8032H78.0175L76.3696 41.5178ZM68.668 36.2758H74.7398L71.694 26.4672L68.668 36.2758ZM109.222 18.5544V37.0508C109.222 39.1494 108.778 40.9619 107.886 42.4919C106.991 44.031 105.713 45.1953 104.043 45.9957C102.375 46.7978 100.401 47.2016 98.1306 47.2016C94.6863 47.2016 91.9773 46.3071 89.9981 44.5272C88.017 42.7382 87.012 40.2956 86.9721 37.1884V18.5544H93.8189V37.3242C93.8986 40.4151 95.3346 41.9596 98.1306 41.9596C99.534 41.9596 100.606 41.5649 101.329 40.7917C102.051 40.0167 102.415 38.751 102.415 37.0127V18.5544H109.222ZM135.639 23.8018H127.162V46.8032H120.348V23.8018H112.023V18.5544H135.639V23.8018ZM145.765 46.8032H138.976V18.5544H145.765V46.8032ZM174.413 33.2628C174.413 36.0168 173.902 38.4595 172.883 40.5816C171.863 42.7056 170.407 44.3425 168.526 45.4869C166.644 46.6312 164.5 47.2016 162.095 47.2016C159.69 47.2016 157.552 46.6457 155.692 45.543C153.831 44.4348 152.38 42.8541 151.333 40.7917C150.294 38.7365 149.751 36.3736 149.698 33.7082V32.1184C149.698 29.3498 150.202 26.9072 151.221 24.7886C152.235 22.6755 153.691 21.0387 155.585 19.8852C157.479 18.7354 159.638 18.1614 162.055 18.1614C164.446 18.1614 166.586 18.7264 168.459 19.8671C170.333 21.0061 171.791 22.6285 172.837 24.7289C173.877 26.8329 174.4 29.2448 174.413 31.9645V33.2628ZM167.486 32.0713C167.486 29.2575 167.023 27.1263 166.083 25.6705C165.141 24.2092 163.805 23.4831 162.055 23.4831C158.638 23.4831 156.837 26.0453 156.645 31.1768L156.625 33.2591C156.625 36.0259 157.083 38.1571 158.003 39.6455C158.917 41.1393 160.281 41.8799 162.095 41.8799C163.817 41.8799 165.141 41.143 166.068 39.6781C167.003 38.2187 167.474 36.1182 167.486 33.3696V32.0713ZM201.525 46.8032H194.756L184.744 29.2249V46.8032H177.937V18.5544H184.744L194.736 36.1364V18.5544H201.525V46.8032Z" fill="white"/>
<path fill-rule="evenodd" clip-rule="evenodd" d="M219.604 29.2031H238.726V36.1562H219.604V29.2031Z" fill="white"/>
<path d="M280.462 37.2499C280.369 39.2146 279.839 40.9528 278.866 42.4594C277.899 43.9659 276.534 45.1301 274.787 45.9595C273.032 46.7851 271.031 47.2016 268.78 47.2016C265.064 47.2016 262.143 45.992 260.012 43.5729C257.873 41.1574 256.807 37.7406 256.807 33.3279V31.9319C256.807 29.1651 257.29 26.7406 258.257 24.6691C259.217 22.5868 260.608 20.988 262.415 19.8526C264.224 18.7209 266.323 18.1614 268.7 18.1614C272.13 18.1614 274.886 19.0595 276.965 20.8684C279.051 22.6665 280.23 25.1598 280.514 28.3213H273.727C273.673 26.6012 273.244 25.3644 272.429 24.6094C271.614 23.8616 270.37 23.4831 268.7 23.4831C267.005 23.4831 265.767 24.1169 264.979 25.3825C264.189 26.6537 263.773 28.6835 263.733 31.4683V33.4674C263.733 36.4804 264.112 38.6406 264.872 39.9388C265.627 41.2317 266.931 41.8799 268.78 41.8799C270.343 41.8799 271.542 41.5087 272.369 40.7718C273.197 40.0312 273.633 38.8578 273.687 37.2499H280.462ZM299.733 41.5178H290.402L288.772 46.8032H281.494L291.859 18.5544H298.255L308.698 46.8032H301.383L299.733 41.5178ZM292.03 36.2758H298.103L295.057 26.4672L292.03 36.2758ZM332.585 18.5544V37.0508C332.585 39.1494 332.142 40.9619 331.249 42.4919C330.354 44.031 329.076 45.1953 327.408 45.9957C325.739 46.7978 323.765 47.2016 321.494 47.2016C318.05 47.2016 315.341 46.3071 313.361 44.5272C311.382 42.7382 310.375 40.2956 310.335 37.1884V18.5544H317.182V37.3242C317.262 40.4151 318.698 41.9596 321.494 41.9596C322.897 41.9596 323.971 41.5649 324.692 40.7917C325.414 40.0167 325.778 38.751 325.778 37.0127V18.5544H332.585ZM359.002 23.8018H350.525V46.8032H343.711V23.8018H335.387V18.5544H359.002V23.8018ZM369.128 46.8032H362.339V18.5544H369.128V46.8032ZM397.776 33.2628C397.776 36.0168 397.267 38.4595 396.248 40.5816C395.226 42.7056 393.77 44.3425 391.889 45.4869C390.009 46.6312 387.863 47.2016 385.459 47.2016C383.056 47.2016 380.915 46.6457 379.055 45.543C377.194 44.4348 375.743 42.8541 374.697 40.7917C373.657 38.7365 373.114 36.3736 373.061 33.7082V32.1184C373.061 29.3498 373.565 26.9072 374.584 24.7886C375.598 22.6755 377.054 21.0387 378.949 19.8852C380.843 18.7354 383.001 18.1614 385.419 18.1614C387.809 18.1614 389.949 18.7264 391.824 19.8671C393.696 21.0061 395.154 22.6285 396.201 24.7289C397.24 26.8329 397.763 29.2448 397.776 31.9645V33.2628ZM390.849 32.0713C390.849 29.2575 390.386 27.1263 389.446 25.6705C388.504 24.2092 387.168 23.4831 385.419 23.4831C382.002 23.4831 380.2 26.0453 380.008 31.1768L379.988 33.2591C379.988 36.0259 380.446 38.1571 381.366 39.6455C382.281 41.1393 383.644 41.8799 385.459 41.8799C387.181 41.8799 388.504 41.143 389.432 39.6781C390.366 38.2187 390.837 36.1182 390.849 33.3696V32.0713ZM424.888 46.8032H418.121L408.107 29.2249V46.8032H401.3V18.5544H408.107L418.101 36.1364V18.5544H424.888V46.8032Z" fill="white"/>
<path fill-rule="evenodd" clip-rule="evenodd" d="M442.967 29.2031H462.089V36.1562H442.967V29.2031Z" fill="white"/>
<path d="M503.823 37.2499C503.731 39.2146 503.202 40.9528 502.23 42.4594C501.261 43.9659 499.897 45.1301 498.15 45.9595C496.393 46.7851 494.394 47.2016 492.141 47.2016C488.427 47.2016 485.508 45.992 483.375 43.5729C481.233 41.1574 480.168 37.7406 480.168 33.3279V31.9319C480.168 29.1651 480.65 26.7406 481.618 24.6691C482.578 22.5868 483.969 20.988 485.776 19.8526C487.585 18.7209 489.684 18.1614 492.062 18.1614C495.493 18.1614 498.248 19.0595 500.328 20.8684C502.414 22.6665 503.591 25.1598 503.874 28.3213H497.089C497.036 26.6012 496.605 25.3644 495.79 24.6094C494.973 23.8616 493.731 23.4831 492.062 23.4831C490.367 23.4831 489.128 24.1169 488.34 25.3825C487.553 26.6537 487.134 28.6835 487.093 31.4683V33.4674C487.093 36.4804 487.473 38.6406 488.233 39.9388C488.989 41.2317 490.292 41.8799 492.141 41.8799C493.704 41.8799 494.905 41.5087 495.729 40.7718C496.56 40.0312 496.994 38.8578 497.051 37.2499H503.823ZM523.094 41.5178H513.763L512.135 46.8032H504.857L515.219 18.5544H521.615L532.06 46.8032H524.744L523.094 41.5178ZM515.394 36.2758H521.468L518.417 26.4672L515.394 36.2758ZM555.948 18.5544V37.0508C555.948 39.1494 555.503 40.9619 554.608 42.4919C553.714 44.031 552.439 45.1953 550.769 45.9957C549.102 46.7978 547.126 47.2016 544.855 47.2016C541.411 47.2016 538.704 46.3071 536.724 44.5272C534.743 42.7382 533.738 40.2956 533.697 37.1884V18.5544H540.544V37.3242C540.621 40.4151 542.059 41.9596 544.855 41.9596C546.259 41.9596 547.331 41.5649 548.053 40.7917C548.777 40.0167 549.138 38.751 549.138 37.0127V18.5544H555.948ZM582.363 23.8018H573.889V46.8032H567.074V23.8018H558.748V18.5544H582.363V23.8018ZM592.488 46.8032H585.701V18.5544H592.488V46.8032ZM621.137 33.2628C621.137 36.0168 620.627 38.4595 619.607 40.5816C618.588 42.7056 617.132 44.3425 615.248 45.4869C613.372 46.6312 611.225 47.2016 608.82 47.2016C606.419 47.2016 604.276 46.6457 602.417 45.543C600.553 44.4348 599.106 42.8541 598.06 40.7917C597.02 38.7365 596.473 36.3736 596.423 33.7082V32.1184C596.423 29.3498 596.928 26.9072 597.948 24.7886C598.96 22.6755 600.414 21.0387 602.31 19.8852C604.206 18.7354 606.363 18.1614 608.782 18.1614C611.17 18.1614 613.311 18.7264 615.185 19.8671C617.057 21.0061 618.517 22.6285 619.56 24.7289C620.603 26.8329 621.123 29.2448 621.137 31.9645V33.2628ZM614.211 32.0713C614.211 29.2575 613.747 27.1263 612.806 25.6705C611.866 24.2092 610.529 23.4831 608.782 23.4831C605.365 23.4831 603.563 26.0453 603.373 31.1768L603.349 33.2591C603.349 36.0259 603.807 38.1571 604.726 39.6455C605.644 41.1393 607.007 41.8799 608.82 41.8799C610.544 41.8799 611.866 41.143 612.793 39.6781C613.729 38.2187 614.196 36.1182 614.211 33.3696V32.0713ZM648.251 46.8032H641.482L631.47 29.2249V46.8032H624.659V18.5544H631.47L641.46 36.1364V18.5544H648.251V46.8032Z" fill="white"/>
<path fill-rule="evenodd" clip-rule="evenodd" d="M666.332 29.2031H685.455V36.1562H666.332V29.2031Z" fill="white"/>
<path d="M727.185 37.2499C727.092 39.2146 726.564 40.9528 725.589 42.4594C724.626 43.9659 723.259 45.1301 721.511 45.9595C719.758 46.7851 717.756 47.2016 715.503 47.2016C711.789 47.2016 708.87 45.992 706.737 43.5729C704.6 41.1574 703.533 37.7406 703.533 33.3279V31.9319C703.533 29.1651 704.015 26.7406 704.984 24.6691C705.943 22.5868 707.334 20.988 709.143 19.8526C710.95 18.7209 713.051 18.1614 715.423 18.1614C718.855 18.1614 721.613 19.0595 723.69 20.8684C725.776 22.6665 726.953 25.1598 727.241 28.3213H720.454C720.398 26.6012 719.967 25.3644 719.155 24.6094C718.341 23.8616 717.093 23.4831 715.423 23.4831C713.732 23.4831 712.493 24.1169 711.706 25.3825C710.918 26.6537 710.501 28.6835 710.46 31.4683V33.4674C710.46 36.4804 710.835 38.6406 711.599 39.9388C712.356 41.2317 713.658 41.8799 715.503 41.8799C717.069 41.8799 718.266 41.5087 719.096 40.7718C719.921 40.0312 720.361 38.8578 720.412 37.2499H727.185ZM746.456 41.5178H737.128L735.497 46.8032H728.219L738.584 18.5544H744.982L755.427 46.8032H748.105L746.456 41.5178ZM738.756 36.2758H744.828L741.784 26.4672L738.756 36.2758ZM779.31 18.5544V37.0508C779.31 39.1494 778.87 40.9619 777.974 42.4919C777.079 44.031 775.801 45.1953 774.131 45.9957C772.463 46.7978 770.493 47.2016 768.22 47.2016C764.776 47.2016 762.065 46.3071 760.084 44.5272C758.105 42.7382 757.1 40.2956 757.058 37.1884V18.5544H763.909V37.3242C763.988 40.4151 765.426 41.9596 768.22 41.9596C769.62 41.9596 770.696 41.5649 771.42 40.7917C772.137 40.0167 772.505 38.751 772.505 37.0127V18.5544H779.31ZM805.729 23.8018H797.25V46.8032H790.436V23.8018H782.115V18.5544H805.729V23.8018ZM815.853 46.8032H809.066V18.5544H815.853V46.8032ZM844.503 33.2628C844.503 36.0168 843.992 38.4595 842.972 40.5816C841.953 42.7056 840.497 44.3425 838.615 45.4869C836.732 46.6312 834.586 47.2016 832.185 47.2016C829.778 47.2016 827.642 46.6457 825.778 45.543C823.92 44.4348 822.468 42.8541 821.421 40.7917C820.382 38.7365 819.841 36.3736 819.79 33.7082V32.1184C819.79 29.3498 820.29 26.9072 821.309 24.7886C822.325 22.6755 823.781 21.0387 825.677 19.8852C827.567 18.7354 829.728 18.1614 832.143 18.1614C834.536 18.1614 836.672 18.7264 838.55 19.8671C840.423 21.0061 841.879 22.6285 842.927 24.7289C843.965 26.8329 844.488 29.2448 844.503 31.9645V33.2628ZM837.576 32.0713C837.576 29.2575 837.112 27.1263 836.173 25.6705C835.231 24.2092 833.891 23.4831 832.143 23.4831C828.726 23.4831 826.928 26.0453 826.734 31.1768L826.715 33.2591C826.715 36.0259 827.169 38.1571 828.093 39.6455C829.005 41.1393 830.369 41.8799 832.185 41.8799C833.905 41.8799 835.231 41.143 836.158 39.6781C837.091 38.2187 837.563 36.1182 837.576 33.3696V32.0713ZM871.613 46.8032H864.844L854.832 29.2249V46.8032H848.026V18.5544H854.832L864.826 36.1364V18.5544H871.613V46.8032Z" fill="white"/>
<path fill-rule="evenodd" clip-rule="evenodd" d="M891.33 29.2031H910.453V36.1562H891.33V29.2031Z" fill="white"/>
<path d="M952.183 37.2499C952.09 39.2146 951.562 40.9528 950.587 42.4594C949.619 43.9659 948.255 45.1301 946.508 45.9595C944.751 46.7851 942.754 47.2016 940.501 47.2016C936.787 47.2016 933.866 45.992 931.735 43.5729C929.596 41.1574 928.531 37.7406 928.531 33.3279V31.9319C928.531 29.1651 929.013 26.7406 929.976 24.6691C930.936 22.5868 932.327 20.988 934.136 19.8526C935.943 18.7209 938.044 18.1614 940.421 18.1614C943.851 18.1614 946.605 19.0595 948.686 20.8684C950.772 22.6665 951.951 25.1598 952.237 28.3213H945.446C945.396 26.6012 944.965 25.3644 944.148 24.6094C943.337 23.8616 942.091 23.4831 940.421 23.4831C938.725 23.4831 937.488 24.1169 936.698 25.3825C935.91 26.6537 935.494 28.6835 935.456 31.4683V33.4674C935.456 36.4804 935.833 38.6406 936.591 39.9388C937.348 41.2317 938.656 41.8799 940.501 41.8799C942.062 41.8799 943.263 41.5087 944.094 40.7718C944.918 40.0312 945.354 38.8578 945.41 37.2499H952.183ZM971.454 41.5178H962.121L960.495 46.8032H953.217L963.582 18.5544H969.98L980.419 46.8032H973.104L971.454 41.5178ZM963.752 36.2758H969.826L966.78 26.4672L963.752 36.2758ZM1004.31 18.5544V37.0508C1004.31 39.1494 1003.86 40.9619 1002.97 42.4919C1002.08 44.031 1000.8 45.1953 999.129 45.9957C997.459 46.7978 995.486 47.2016 993.213 47.2016C989.774 47.2016 987.062 46.3071 985.082 44.5272C983.103 42.7382 982.096 40.2956 982.055 37.1884V18.5544H988.901V37.3242C988.987 40.4151 990.423 41.9596 993.213 41.9596C994.618 41.9596 995.694 41.5649 996.413 40.7917C997.135 40.0167 997.501 38.751 997.501 37.0127V18.5544H1004.31ZM1030.73 23.8018H1022.25V46.8032H1015.43V23.8018H1007.11V18.5544H1030.73V23.8018ZM1040.85 46.8032H1034.06V18.5544H1040.85V46.8032ZM1069.5 33.2628C1069.5 36.0168 1068.99 38.4595 1067.97 40.5816C1066.95 42.7056 1065.49 44.3425 1063.61 45.4869C1061.73 46.6312 1059.58 47.2016 1057.18 47.2016C1054.78 47.2016 1052.64 46.6457 1050.78 45.543C1048.92 44.4348 1047.47 42.8541 1046.42 40.7917C1045.38 38.7365 1044.84 36.3736 1044.78 33.7082V32.1184C1044.78 29.3498 1045.29 26.9072 1046.31 24.7886C1047.32 22.6755 1048.78 21.0387 1050.67 19.8852C1052.57 18.7354 1054.73 18.1614 1057.14 18.1614C1059.53 18.1614 1061.67 18.7264 1063.54 19.8671C1065.42 21.0061 1066.88 22.6285 1067.92 24.7289C1068.96 26.8329 1069.49 29.2448 1069.5 31.9645V33.2628ZM1062.57 32.0713C1062.57 29.2575 1062.11 27.1263 1061.17 25.6705C1060.23 24.2092 1058.89 23.4831 1057.14 23.4831C1053.72 23.4831 1051.92 26.0453 1051.73 31.1768L1051.71 33.2591C1051.71 36.0259 1052.17 38.1571 1053.09 39.6455C1054 41.1393 1055.37 41.8799 1057.18 41.8799C1058.9 41.8799 1060.23 41.143 1061.16 39.6781C1062.09 38.2187 1062.56 36.1182 1062.57 33.3696V32.0713ZM1096.61 46.8032H1089.84L1079.83 29.2249V46.8032H1073.02V18.5544H1079.83L1089.82 36.1364V18.5544H1096.61V46.8032Z" fill="white"/>
<path fill-rule="evenodd" clip-rule="evenodd" d="M1114.69 29.2031H1133.81V36.1562H1114.69V29.2031Z" fill="white"/>
<path d="M1175.55 37.2499C1175.46 39.2146 1174.92 40.9528 1173.95 42.4594C1172.99 43.9659 1171.62 45.1301 1169.87 45.9595C1168.12 46.7851 1166.12 47.2016 1163.87 47.2016C1160.15 47.2016 1157.23 45.992 1155.09 43.5729C1152.96 41.1574 1151.89 37.7406 1151.89 33.3279V31.9319C1151.89 29.1651 1152.37 26.7406 1153.34 24.6691C1154.3 22.5868 1155.69 20.988 1157.5 19.8526C1159.31 18.7209 1161.41 18.1614 1163.79 18.1614C1167.22 18.1614 1169.97 19.0595 1172.05 20.8684C1174.13 22.6665 1175.32 25.1598 1175.6 28.3213H1168.81C1168.76 26.6012 1168.33 25.3644 1167.51 24.6094C1166.7 23.8616 1165.46 23.4831 1163.79 23.4831C1162.09 23.4831 1160.85 24.1169 1160.06 25.3825C1159.28 26.6537 1158.86 28.6835 1158.82 31.4683V33.4674C1158.82 36.4804 1159.2 38.6406 1159.96 39.9388C1160.71 41.2317 1162.02 41.8799 1163.87 41.8799C1165.43 41.8799 1166.63 41.5087 1167.45 40.7718C1168.28 40.0312 1168.72 38.8578 1168.77 37.2499H1175.55ZM1194.82 41.5178H1185.49L1183.86 46.8032H1176.58L1186.94 18.5544H1193.34L1203.78 46.8032H1196.46L1194.82 41.5178ZM1187.11 36.2758H1193.19L1190.14 26.4672L1187.11 36.2758ZM1227.67 18.5544V37.0508C1227.67 39.1494 1227.23 40.9619 1226.33 42.4919C1225.44 44.031 1224.16 45.1953 1222.49 45.9957C1220.83 46.7978 1218.85 47.2016 1216.58 47.2016C1213.14 47.2016 1210.43 46.3071 1208.45 44.5272C1206.47 42.7382 1205.46 40.2956 1205.42 37.1884V18.5544H1212.27V37.3242C1212.35 40.4151 1213.78 41.9596 1216.58 41.9596C1217.98 41.9596 1219.06 41.5649 1219.78 40.7917C1220.5 40.0167 1220.86 38.751 1220.86 37.0127V18.5544H1227.67ZM1254.09 23.8018H1245.61V46.8032H1238.8V23.8018H1230.47V18.5544H1254.09V23.8018ZM1264.21 46.8032H1257.43V18.5544H1264.21V46.8032ZM1292.86 33.2628C1292.86 36.0168 1292.35 38.4595 1291.33 40.5816C1290.31 42.7056 1288.86 44.3425 1286.97 45.4869C1285.09 46.6312 1282.95 47.2016 1280.54 47.2016C1278.14 47.2016 1276 46.6457 1274.14 45.543C1272.28 44.4348 1270.83 42.8541 1269.78 40.7917C1268.74 38.7365 1268.2 36.3736 1268.15 33.7082V32.1184C1268.15 29.3498 1268.65 26.9072 1269.67 24.7886C1270.68 22.6755 1272.14 21.0387 1274.03 19.8852C1275.93 18.7354 1278.09 18.1614 1280.5 18.1614C1282.89 18.1614 1285.04 18.7264 1286.91 19.8671C1288.78 21.0061 1290.24 22.6285 1291.28 24.7289C1292.32 26.8329 1292.85 29.2448 1292.86 31.9645V33.2628ZM1285.94 32.0713C1285.94 29.2575 1285.47 27.1263 1284.53 25.6705C1283.59 24.2092 1282.25 23.4831 1280.5 23.4831C1277.09 23.4831 1275.29 26.0453 1275.09 31.1768L1275.07 33.2591C1275.07 36.0259 1275.53 38.1571 1276.45 39.6455C1277.36 41.1393 1278.73 41.8799 1280.54 41.8799C1282.26 41.8799 1283.59 41.143 1284.52 39.6781C1285.45 38.2187 1285.92 36.1182 1285.94 33.3696V32.0713ZM1319.97 46.8032H1313.21L1303.19 29.2249V46.8032H1296.38V18.5544H1303.19L1313.19 36.1364V18.5544H1319.97V46.8032Z" fill="white"/>
<path fill-rule="evenodd" clip-rule="evenodd" d="M1338.05 29.2031H1357.17V36.1562H1338.05V29.2031Z" fill="white"/>
<path d="M1398.91 37.2499C1398.82 39.2146 1398.29 40.9528 1397.31 42.4594C1396.34 43.9659 1394.98 45.1301 1393.24 45.9595C1391.48 46.7851 1389.48 47.2016 1387.23 47.2016C1383.51 47.2016 1380.59 45.992 1378.46 43.5729C1376.32 41.1574 1375.25 37.7406 1375.25 33.3279V31.9319C1375.25 29.1651 1375.74 26.7406 1376.7 24.6691C1377.66 22.5868 1379.05 20.988 1380.86 19.8526C1382.67 18.7209 1384.77 18.1614 1387.15 18.1614C1390.58 18.1614 1393.33 19.0595 1395.41 20.8684C1397.5 22.6665 1398.68 25.1598 1398.97 28.3213H1392.17C1392.12 26.6012 1391.69 25.3644 1390.88 24.6094C1390.06 23.8616 1388.82 23.4831 1387.15 23.4831C1385.45 23.4831 1384.21 24.1169 1383.43 25.3825C1382.64 26.6537 1382.22 28.6835 1382.18 31.4683V33.4674C1382.18 36.4804 1382.56 38.6406 1383.32 39.9388C1384.07 41.2317 1385.38 41.8799 1387.23 41.8799C1388.79 41.8799 1389.99 41.5087 1390.82 40.7718C1391.65 40.0312 1392.08 38.8578 1392.14 37.2499H1398.91ZM1418.18 41.5178H1408.85L1407.22 46.8032H1399.94L1410.31 18.5544H1416.71L1427.15 46.8032H1419.83L1418.18 41.5178ZM1410.48 36.2758H1416.55L1413.51 26.4672L1410.48 36.2758ZM1451.03 18.5544V37.0508C1451.03 39.1494 1450.59 40.9619 1449.7 42.4919C1448.8 44.031 1447.52 45.1953 1445.86 45.9957C1444.19 46.7978 1442.21 47.2016 1439.94 47.2016C1436.5 47.2016 1433.79 46.3071 1431.81 44.5272C1429.83 42.7382 1428.82 40.2956 1428.78 37.1884V18.5544H1435.63V37.3242C1435.71 40.4151 1437.15 41.9596 1439.94 41.9596C1441.34 41.9596 1442.42 41.5649 1443.14 40.7917C1443.86 40.0167 1444.23 38.751 1444.23 37.0127V18.5544H1451.03ZM1477.45 23.8018H1468.97V46.8032H1462.16V23.8018H1453.83V18.5544H1477.45V23.8018ZM1487.58 46.8032H1480.79V18.5544H1487.58V46.8032ZM1516.23 33.2628C1516.23 36.0168 1515.72 38.4595 1514.7 40.5816C1513.68 42.7056 1512.22 44.3425 1510.34 45.4869C1508.46 46.6312 1506.31 47.2016 1503.91 47.2016C1501.5 47.2016 1499.37 46.6457 1497.5 45.543C1495.64 44.4348 1494.19 42.8541 1493.15 40.7917C1492.11 38.7365 1491.56 36.3736 1491.51 33.7082V32.1184C1491.51 29.3498 1492.01 26.9072 1493.03 24.7886C1494.04 22.6755 1495.51 21.0387 1497.4 19.8852C1499.29 18.7354 1501.45 18.1614 1503.87 18.1614C1506.26 18.1614 1508.4 18.7264 1510.27 19.8671C1512.15 21.0061 1513.6 22.6285 1514.65 24.7289C1515.69 26.8329 1516.21 29.2448 1516.23 31.9645V33.2628ZM1509.3 32.0713C1509.3 29.2575 1508.83 27.1263 1507.9 25.6705C1506.96 24.2092 1505.62 23.4831 1503.87 23.4831C1500.45 23.4831 1498.65 26.0453 1498.46 31.1768L1498.44 33.2591C1498.44 36.0259 1498.89 38.1571 1499.82 39.6455C1500.73 41.1393 1502.09 41.8799 1503.91 41.8799C1505.63 41.8799 1506.96 41.143 1507.88 39.6781C1508.81 38.2187 1509.29 36.1182 1509.3 33.3696V32.0713ZM1543.34 46.8032H1536.57L1526.56 29.2249V46.8032H1519.75V18.5544H1526.56L1536.55 36.1364V18.5544H1543.34V46.8032Z" fill="white"/>
<path fill-rule="evenodd" clip-rule="evenodd" d="M1561.42 29.2031H1580.54V36.1562H1561.42V29.2031Z" fill="white"/>
<path d="M1622.28 37.2499C1622.18 39.2146 1621.65 40.9528 1620.68 42.4594C1619.71 43.9659 1618.35 45.1301 1616.6 45.9595C1614.84 46.7851 1612.84 47.2016 1610.59 47.2016C1606.87 47.2016 1603.95 45.992 1601.82 43.5729C1599.69 41.1574 1598.62 37.7406 1598.62 33.3279V31.9319C1598.62 29.1651 1599.1 26.7406 1600.07 24.6691C1601.03 22.5868 1602.42 20.988 1604.23 19.8526C1606.04 18.7209 1608.14 18.1614 1610.51 18.1614C1613.94 18.1614 1616.7 19.0595 1618.78 20.8684C1620.86 22.6665 1622.04 25.1598 1622.33 28.3213H1615.54C1615.48 26.6012 1615.06 25.3644 1614.24 24.6094C1613.43 23.8616 1612.18 23.4831 1610.51 23.4831C1608.82 23.4831 1607.58 24.1169 1606.79 25.3825C1606 26.6537 1605.59 28.6835 1605.55 31.4683V33.4674C1605.55 36.4804 1605.92 38.6406 1606.68 39.9388C1607.44 41.2317 1608.74 41.8799 1610.59 41.8799C1612.16 41.8799 1613.35 41.5087 1614.18 40.7718C1615.01 40.0312 1615.45 38.8578 1615.5 37.2499H1622.28ZM1641.55 41.5178H1632.21L1630.59 46.8032H1623.31L1633.67 18.5544H1640.07L1650.51 46.8032H1643.19L1641.55 41.5178ZM1633.84 36.2758H1639.91L1636.87 26.4672L1633.84 36.2758ZM1674.4 18.5544V37.0508C1674.4 39.1494 1673.95 40.9619 1673.06 42.4919C1672.17 44.031 1670.89 45.1953 1669.22 45.9957C1667.55 46.7978 1665.58 47.2016 1663.31 47.2016C1659.86 47.2016 1657.15 46.3071 1655.18 44.5272C1653.19 42.7382 1652.19 40.2956 1652.15 37.1884V18.5544H1658.99V37.3242C1659.07 40.4151 1660.51 41.9596 1663.31 41.9596C1664.71 41.9596 1665.78 41.5649 1666.51 40.7917C1667.23 40.0167 1667.59 38.751 1667.59 37.0127V18.5544H1674.4ZM1700.81 23.8018H1692.34V46.8032H1685.53V23.8018H1677.2V18.5544H1700.81V23.8018ZM1710.94 46.8032H1704.15V18.5544H1710.94V46.8032ZM1739.59 33.2628C1739.59 36.0168 1739.08 38.4595 1738.06 40.5816C1737.04 42.7056 1735.58 44.3425 1733.7 45.4869C1731.82 46.6312 1729.68 47.2016 1727.27 47.2016C1724.86 47.2016 1722.73 46.6457 1720.87 45.543C1719.01 44.4348 1717.55 42.8541 1716.51 40.7917C1715.47 38.7365 1714.93 36.3736 1714.88 33.7082V32.1184C1714.88 29.3498 1715.38 26.9072 1716.4 24.7886C1717.41 22.6755 1718.87 21.0387 1720.76 19.8852C1722.65 18.7354 1724.81 18.1614 1727.23 18.1614C1729.62 18.1614 1731.76 18.7264 1733.64 19.8671C1735.51 21.0061 1736.96 22.6285 1738.01 24.7289C1739.05 26.8329 1739.57 29.2448 1739.59 31.9645V33.2628ZM1732.66 32.0713C1732.66 29.2575 1732.2 27.1263 1731.26 25.6705C1730.32 24.2092 1728.98 23.4831 1727.23 23.4831C1723.81 23.4831 1722.01 26.0453 1721.82 31.1768L1721.8 33.2591C1721.8 36.0259 1722.26 38.1571 1723.18 39.6455C1724.09 41.1393 1725.46 41.8799 1727.27 41.8799C1728.99 41.8799 1730.32 41.143 1731.24 39.6781C1732.18 38.2187 1732.65 36.1182 1732.66 33.3696V32.0713ZM1766.7 46.8032H1759.93L1749.92 29.2249V46.8032H1743.11V18.5544H1749.92L1759.91 36.1364V18.5544H1766.7V46.8032Z" fill="white"/>
<path fill-rule="evenodd" clip-rule="evenodd" d="M1784.78 29.2031H1803.9V36.1562H1784.78V29.2031Z" fill="white"/>
<path d="M1845.64 37.2499C1845.54 39.2146 1845.01 40.9528 1844.04 42.4594C1843.07 43.9659 1841.71 45.1301 1839.96 45.9595C1838.21 46.7851 1836.21 47.2016 1833.95 47.2016C1830.24 47.2016 1827.32 45.992 1825.19 43.5729C1823.05 41.1574 1821.98 37.7406 1821.98 33.3279V31.9319C1821.98 29.1651 1822.47 26.7406 1823.43 24.6691C1824.39 22.5868 1825.78 20.988 1827.59 19.8526C1829.4 18.7209 1831.5 18.1614 1833.88 18.1614C1837.31 18.1614 1840.06 19.0595 1842.14 20.8684C1844.23 22.6665 1845.41 25.1598 1845.69 28.3213H1838.9C1838.85 26.6012 1838.42 25.3644 1837.6 24.6094C1836.79 23.8616 1835.54 23.4831 1833.88 23.4831C1832.18 23.4831 1830.94 24.1169 1830.15 25.3825C1829.37 26.6537 1828.95 28.6835 1828.91 31.4683V33.4674C1828.91 36.4804 1829.29 38.6406 1830.05 39.9388C1830.8 41.2317 1832.11 41.8799 1833.95 41.8799C1835.52 41.8799 1836.72 41.5087 1837.54 40.7718C1838.37 40.0312 1838.81 38.8578 1838.86 37.2499H1845.64ZM1864.91 41.5178H1855.58L1853.95 46.8032H1846.67L1857.04 18.5544H1863.43L1873.87 46.8032H1866.56L1864.91 41.5178ZM1857.21 36.2758H1863.28L1860.23 26.4672L1857.21 36.2758ZM1897.76 18.5544V37.0508C1897.76 39.1494 1897.32 40.9619 1896.43 42.4919C1895.53 44.031 1894.25 45.1953 1892.58 45.9957C1890.91 46.7978 1888.94 47.2016 1886.67 47.2016C1883.23 47.2016 1880.52 46.3071 1878.54 44.5272C1876.56 42.7382 1875.55 40.2956 1875.51 37.1884V18.5544H1882.36V37.3242C1882.44 40.4151 1883.87 41.9596 1886.67 41.9596C1888.07 41.9596 1889.15 41.5649 1889.87 40.7917C1890.59 40.0167 1890.96 38.751 1890.96 37.0127V18.5544H1897.76ZM1924.18 23.8018H1915.7V46.8032H1908.89V23.8018H1900.56V18.5544H1924.18V23.8018ZM1934.31 46.8032H1927.51V18.5544H1934.31V46.8032ZM1962.95 33.2628C1962.95 36.0168 1962.44 38.4595 1961.43 40.5816C1960.4 42.7056 1958.94 44.3425 1957.07 45.4869C1955.18 46.6312 1953.04 47.2016 1950.63 47.2016C1948.23 47.2016 1946.09 46.6457 1944.23 45.543C1942.37 44.4348 1940.92 42.8541 1939.87 40.7917C1938.83 38.7365 1938.29 36.3736 1938.24 33.7082V32.1184C1938.24 29.3498 1938.74 26.9072 1939.76 24.7886C1940.77 22.6755 1942.23 21.0387 1944.12 19.8852C1946.02 18.7354 1948.18 18.1614 1950.59 18.1614C1952.99 18.1614 1955.13 18.7264 1957 19.8671C1958.88 21.0061 1960.33 22.6285 1961.38 24.7289C1962.42 26.8329 1962.94 29.2448 1962.95 31.9645V33.2628ZM1956.02 32.0713C1956.02 29.2575 1955.56 27.1263 1954.62 25.6705C1953.68 24.2092 1952.34 23.4831 1950.59 23.4831C1947.18 23.4831 1945.38 26.0453 1945.19 31.1768L1945.17 33.2591C1945.17 36.0259 1945.62 38.1571 1946.54 39.6455C1947.46 41.1393 1948.82 41.8799 1950.63 41.8799C1952.36 41.8799 1953.68 41.143 1954.61 39.6781C1955.54 38.2187 1956.01 36.1182 1956.02 33.3696V32.0713ZM1990.06 46.8032H1983.3L1973.28 29.2249V46.8032H1966.48V18.5544H1973.28L1983.28 36.1364V18.5544H1990.06V46.8032Z" fill="white"/>
<path fill-rule="evenodd" clip-rule="evenodd" d="M2008.14 29.2031H2027.26V36.1562H2008.14V29.2031Z" fill="white"/>
<path d="M2069 37.2499C2068.91 39.2146 2068.37 40.9528 2067.4 42.4594C2066.44 43.9659 2065.07 45.1301 2063.32 45.9595C2061.57 46.7851 2059.57 47.2016 2057.32 47.2016C2053.6 47.2016 2050.68 45.992 2048.55 43.5729C2046.41 41.1574 2045.34 37.7406 2045.34 33.3279V31.9319C2045.34 29.1651 2045.83 26.7406 2046.8 24.6691C2047.76 22.5868 2049.15 20.988 2050.95 19.8526C2052.76 18.7209 2054.86 18.1614 2057.24 18.1614C2060.67 18.1614 2063.42 19.0595 2065.5 20.8684C2067.59 22.6665 2068.77 25.1598 2069.05 28.3213H2062.26C2062.21 26.6012 2061.78 25.3644 2060.97 24.6094C2060.15 23.8616 2058.91 23.4831 2057.24 23.4831C2055.54 23.4831 2054.31 24.1169 2053.52 25.3825C2052.73 26.6537 2052.31 28.6835 2052.27 31.4683V33.4674C2052.27 36.4804 2052.65 38.6406 2053.41 39.9388C2054.17 41.2317 2055.47 41.8799 2057.32 41.8799C2058.88 41.8799 2060.08 41.5087 2060.91 40.7718C2061.74 40.0312 2062.17 38.8578 2062.22 37.2499H2069ZM2088.27 41.5178H2078.94L2077.31 46.8032H2070.03L2080.39 18.5544H2086.79L2097.24 46.8032H2089.92L2088.27 41.5178ZM2080.57 36.2758H2086.64L2083.59 26.4672L2080.57 36.2758ZM2121.13 18.5544V37.0508C2121.13 39.1494 2120.68 40.9619 2119.79 42.4919C2118.89 44.031 2117.61 45.1953 2115.94 45.9957C2114.28 46.7978 2112.3 47.2016 2110.03 47.2016C2106.59 47.2016 2103.88 46.3071 2101.9 44.5272C2099.92 42.7382 2098.91 40.2956 2098.87 37.1884V18.5544H2105.72V37.3242C2105.8 40.4151 2107.24 41.9596 2110.03 41.9596C2111.44 41.9596 2112.51 41.5649 2113.23 40.7917C2113.95 40.0167 2114.32 38.751 2114.32 37.0127V18.5544H2121.13ZM2147.54 23.8018H2139.06V46.8032H2132.25V23.8018H2123.93V18.5544H2147.54V23.8018ZM2157.67 46.8032H2150.88V18.5544H2157.67V46.8032ZM2186.31 33.2628C2186.31 36.0168 2185.8 38.4595 2184.78 40.5816C2183.76 42.7056 2182.31 44.3425 2180.43 45.4869C2178.54 46.6312 2176.4 47.2016 2174 47.2016C2171.59 47.2016 2169.45 46.6457 2167.59 45.543C2165.73 44.4348 2164.28 42.8541 2163.24 40.7917C2162.19 38.7365 2161.65 36.3736 2161.6 33.7082V32.1184C2161.6 29.3498 2162.1 26.9072 2163.12 24.7886C2164.14 22.6755 2165.59 21.0387 2167.49 19.8852C2169.38 18.7354 2171.54 18.1614 2173.95 18.1614C2176.35 18.1614 2178.49 18.7264 2180.36 19.8671C2182.24 21.0061 2183.69 22.6285 2184.74 24.7289C2185.78 26.8329 2186.3 29.2448 2186.31 31.9645V33.2628ZM2179.39 32.0713C2179.39 29.2575 2178.92 27.1263 2177.98 25.6705C2177.04 24.2092 2175.71 23.4831 2173.95 23.4831C2170.54 23.4831 2168.74 26.0453 2168.55 31.1768L2168.53 33.2591C2168.53 36.0259 2168.99 38.1571 2169.9 39.6455C2170.82 41.1393 2172.18 41.8799 2174 41.8799C2175.72 41.8799 2177.04 41.143 2177.97 39.6781C2178.9 38.2187 2179.37 36.1182 2179.39 33.3696V32.0713ZM2213.42 46.8032H2206.66L2196.65 29.2249V46.8032H2189.84V18.5544H2196.65L2206.64 36.1364V18.5544H2213.42V46.8032Z" fill="white"/>
</g>
<defs>
<clipPath id="clip0_283_21758">
<rect width="2269" height="65.3594" fill="white"/>
</clipPath>
</defs>
</svg>
