<svg width="32" height="32" viewBox="0 0 32 32" fill="none" xmlns="http://www.w3.org/2000/svg">
<rect width="32" height="32" fill="#FF8000"/>
<path d="M18.8396 29H16.4421L16.9998 21.0947C17.2099 21.1201 17.4239 21.1335 17.641 21.1335C17.8579 21.1335 18.0717 21.1201 18.2817 21.0947L18.8396 29Z" fill="white"/>
<path d="M24.9995 26.7325L22.9232 27.9179L19.4232 20.8252C19.8334 20.6782 20.2197 20.482 20.5748 20.2437L24.9995 26.7325Z" fill="white"/>
<path d="M14.7067 20.2434C15.0617 20.4817 15.4479 20.678 15.8581 20.825L12.3585 27.9175L10.2823 26.7322L14.7067 20.2434Z" fill="white"/>
<path d="M13.0179 18.3824C13.2262 18.7705 13.4829 19.1292 13.7802 19.4507L7.29289 23.7763L6.09417 21.7231L13.0179 18.3824Z" fill="white"/>
<path d="M12.4119 15.8257C12.4107 15.8707 12.4102 15.9159 12.4102 15.9612C12.4102 16.3753 12.4595 16.778 12.5525 17.164L5 17.6851V15.3144L12.4119 15.8257Z" fill="white"/>
<path d="M13.229 13.1812C12.9796 13.5673 12.7808 13.9884 12.6415 14.4353L6.09417 11.2764L7.29289 9.22339L13.229 13.1812Z" fill="white"/>
<path d="M25 6.26713L21.0593 12.0461C20.7007 11.7396 20.2995 11.4808 19.8657 11.2789L22.9237 5.08178L25 6.26713Z" fill="white"/>
<path d="M15.4163 11.2789C14.9825 11.4808 14.5811 11.7393 14.2226 12.0457L10.2823 6.2673L12.3585 5.08195L15.4163 11.2789Z" fill="white"/>
<path d="M18.357 10.8371C18.1229 10.8054 17.8839 10.7887 17.641 10.7887C17.3979 10.7887 17.1587 10.8053 16.9245 10.8371L16.4421 4H18.8396L18.357 10.8371Z" fill="white"/>
</svg>
