<svg  viewBox="0 0 1636 1324" fill="none" xmlns="http://www.w3.org/2000/svg">
<circle cx="263.5" cy="57.5" r="32.5" fill="#FF8000"/>
<circle cx="263.5" cy="134.5" r="32.5" fill="#FF8000"/>
<circle cx="186.5" cy="134.5" r="32.5" fill="#FF8000"/>
<circle cx="186.5" cy="211.5" r="32.5" fill="#FF8000"/>
<circle cx="186.5" cy="211.5" r="32.5" fill="#FF8000"/>
<circle cx="340.5" cy="134.5" r="32.5" fill="#FF8000"/>
<circle cx="417.5" cy="134.5" r="32.5" fill="#FF8000"/>
<circle cx="494.5" cy="134.5" r="32.5" fill="#FF8000"/>
<circle cx="571.5" cy="134.5" r="32.5" fill="#FF8000"/>
<circle cx="263.5" cy="211.5" r="32.5" fill="#FF8000"/>
<circle cx="340.5" cy="211.5" r="32.5" fill="#FF8000"/>
<circle cx="417.5" cy="211.5" r="32.5" fill="#FF8000"/>
<circle cx="494.5" cy="211.5" r="32.5" fill="#FF8000"/>
<circle cx="263.5" cy="288.5" r="32.5" fill="#FF8000"/>
<circle cx="186.5" cy="288.5" r="32.5" fill="#FF8000"/>
<circle cx="340.5" cy="288.5" r="32.5" fill="#FF8000"/>
<circle cx="417.5" cy="288.5" r="32.5" fill="#FF8000"/>
<circle cx="494.5" cy="288.5" r="32.5" fill="#FF8000"/>
<circle cx="263.5" cy="365.5" r="32.5" fill="#FF8000"/>
<circle cx="186.5" cy="365.5" r="32.5" fill="#FF8000"/>
<circle cx="109.5" cy="365.5" r="32.5" fill="#FF8000"/>
<circle cx="109.5" cy="288.5" r="32.5" fill="#FF8000"/>
<circle cx="340.5" cy="365.5" r="32.5" fill="#FF8000"/>
<circle cx="417.5" cy="365.5" r="32.5" fill="#FF8000"/>
<circle cx="494.5" cy="365.5" r="32.5" fill="#FF8000"/>
<circle cx="263.5" cy="442.5" r="32.5" fill="#FF8000"/>
<circle cx="186.5" cy="442.5" r="32.5" fill="#FF8000"/>
<circle cx="571.5" cy="442.5" r="32.5" transform="rotate(-90 571.5 442.5)" fill="#FF8000"/>
<circle cx="571.5" cy="750.5" r="32.5" transform="rotate(-90 571.5 750.5)" fill="#FF8000"/>
<circle cx="571.5" cy="827.5" r="32.5" transform="rotate(-90 571.5 827.5)" fill="#FF8000"/>
<circle cx="571.5" cy="904.5" r="32.5" transform="rotate(-90 571.5 904.5)" fill="#FF8000"/>
<circle cx="571.5" cy="981.5" r="32.5" transform="rotate(-90 571.5 981.5)" fill="#FF8000"/>
<circle cx="571.5" cy="1058.5" r="32.5" transform="rotate(-90 571.5 1058.5)" fill="#FF8000"/>
<circle cx="571.5" cy="1135.5" r="32.5" transform="rotate(-90 571.5 1135.5)" fill="#FF8000"/>
<circle cx="571.5" cy="1212.5" r="32.5" transform="rotate(-90 571.5 1212.5)" fill="#FF8000"/>
<circle cx="571.5" cy="1289.5" r="32.5" transform="rotate(-90 571.5 1289.5)" fill="#FF8000"/>
<circle cx="340.5" cy="442.5" r="32.5" fill="#FF8000"/>
<circle cx="571.5" cy="365.5" r="32.5" transform="rotate(-90 571.5 365.5)" fill="#FF8000"/>
<circle cx="571.5" cy="673.5" r="32.5" transform="rotate(-90 571.5 673.5)" fill="#FF8000"/>
<circle cx="417.5" cy="442.5" r="32.5" fill="#FF8000"/>
<circle cx="571.5" cy="288.5" r="32.5" transform="rotate(-90 571.5 288.5)" fill="#FF8000"/>
<circle cx="571.5" cy="596.5" r="32.5" transform="rotate(-90 571.5 596.5)" fill="#FF8000"/>
<circle cx="494.5" cy="442.5" r="32.5" fill="#FF8000"/>
<circle cx="571.5" cy="211.5" r="32.5" transform="rotate(-90 571.5 211.5)" fill="#FF8000"/>
<circle cx="571.5" cy="519.5" r="32.5" transform="rotate(-90 571.5 519.5)" fill="#FF8000"/>
<circle cx="263.5" cy="519.5" r="32.5" fill="#FF8000"/>
<circle cx="186.5" cy="519.5" r="32.5" fill="#FF8000"/>
<circle cx="648.5" cy="442.5" r="32.5" transform="rotate(-90 648.5 442.5)" fill="#FF8000"/>
<circle cx="648.5" cy="750.5" r="32.5" transform="rotate(-90 648.5 750.5)" fill="#FF8000"/>
<circle cx="648.5" cy="827.5" r="32.5" transform="rotate(-90 648.5 827.5)" fill="#FF8000"/>
<circle cx="648.5" cy="904.5" r="32.5" transform="rotate(-90 648.5 904.5)" fill="#FF8000"/>
<circle cx="648.5" cy="981.5" r="32.5" transform="rotate(-90 648.5 981.5)" fill="#FF8000"/>
<circle cx="648.5" cy="1058.5" r="32.5" transform="rotate(-90 648.5 1058.5)" fill="#FF8000"/>
<circle cx="648.5" cy="1135.5" r="32.5" transform="rotate(-90 648.5 1135.5)" fill="#FF8000"/>
<circle cx="648.5" cy="1212.5" r="32.5" transform="rotate(-90 648.5 1212.5)" fill="#FF8000"/>
<circle cx="648.5" cy="1289.5" r="32.5" transform="rotate(-90 648.5 1289.5)" fill="#FF8000"/>
<circle cx="340.5" cy="519.5" r="32.5" fill="#FF8000"/>
<circle cx="648.5" cy="365.5" r="32.5" transform="rotate(-90 648.5 365.5)" fill="#FF8000"/>
<circle cx="648.5" cy="673.5" r="32.5" transform="rotate(-90 648.5 673.5)" fill="#FF8000"/>
<circle cx="417.5" cy="519.5" r="32.5" fill="#FF8000"/>
<circle cx="648.5" cy="288.5" r="32.5" transform="rotate(-90 648.5 288.5)" fill="#FF8000"/>
<circle cx="648.5" cy="596.5" r="32.5" transform="rotate(-90 648.5 596.5)" fill="#FF8000"/>
<circle cx="494.5" cy="519.5" r="32.5" fill="#FF8000"/>
<circle cx="648.5" cy="211.5" r="32.5" transform="rotate(-90 648.5 211.5)" fill="#FF8000"/>
<circle cx="648.5" cy="134.5" r="32.5" transform="rotate(-90 648.5 134.5)" fill="#FF8000"/>
<circle cx="648.5" cy="519.5" r="32.5" transform="rotate(-90 648.5 519.5)" fill="#FF8000"/>
<circle cx="263.5" cy="596.5" r="32.5" fill="#FF8000"/>
<circle cx="186.5" cy="596.5" r="32.5" fill="#FF8000"/>
<circle cx="109.5" cy="596.5" r="32.5" fill="#FF8000"/>
<circle cx="725.5" cy="442.5" r="32.5" transform="rotate(-90 725.5 442.5)" fill="#FF8000"/>
<circle cx="725.5" cy="750.5" r="32.5" transform="rotate(-90 725.5 750.5)" fill="#FF8000"/>
<circle cx="725.5" cy="827.5" r="32.5" transform="rotate(-90 725.5 827.5)" fill="#FF8000"/>
<circle cx="725.5" cy="904.5" r="32.5" transform="rotate(-90 725.5 904.5)" fill="#FF8000"/>
<circle cx="725.5" cy="981.5" r="32.5" transform="rotate(-90 725.5 981.5)" fill="#FF8000"/>
<circle cx="725.5" cy="1058.5" r="32.5" transform="rotate(-90 725.5 1058.5)" fill="#FF8000"/>
<circle cx="802.5" cy="1058.5" r="32.5" transform="rotate(-90 802.5 1058.5)" fill="#FF8000"/>
<circle cx="879.5" cy="1058.5" r="32.5" transform="rotate(-90 879.5 1058.5)" fill="#FF8000"/>
<circle cx="725.5" cy="1135.5" r="32.5" transform="rotate(-90 725.5 1135.5)" fill="#FF8000"/>
<circle cx="802.5" cy="1135.5" r="32.5" transform="rotate(-90 802.5 1135.5)" fill="#FF8000"/>
<circle cx="725.5" cy="1212.5" r="32.5" transform="rotate(-90 725.5 1212.5)" fill="#FF8000"/>
<circle cx="802.5" cy="1212.5" r="32.5" transform="rotate(-90 802.5 1212.5)" fill="#FF8000"/>
<circle cx="725.5" cy="1289.5" r="32.5" transform="rotate(-90 725.5 1289.5)" fill="#FF8000"/>
<circle cx="340.5" cy="596.5" r="32.5" fill="#FF8000"/>
<circle cx="725.5" cy="365.5" r="32.5" transform="rotate(-90 725.5 365.5)" fill="#FF8000"/>
<circle cx="725.5" cy="673.5" r="32.5" transform="rotate(-90 725.5 673.5)" fill="#FF8000"/>
<circle cx="417.5" cy="596.5" r="32.5" fill="#FF8000"/>
<circle cx="725.5" cy="288.5" r="32.5" transform="rotate(-90 725.5 288.5)" fill="#FF8000"/>
<circle cx="725.5" cy="596.5" r="32.5" transform="rotate(-90 725.5 596.5)" fill="#FF8000"/>
<circle cx="494.5" cy="596.5" r="32.5" fill="#FF8000"/>
<circle cx="725.5" cy="211.5" r="32.5" transform="rotate(-90 725.5 211.5)" fill="#FF8000"/>
<circle cx="725.5" cy="134.5" r="32.5" transform="rotate(-90 725.5 134.5)" fill="#FF8000"/>
<circle cx="725.5" cy="56.5" r="32.5" transform="rotate(-90 725.5 56.5)" fill="#FF8000"/>
<circle cx="725.5" cy="519.5" r="32.5" transform="rotate(-90 725.5 519.5)" fill="#FF8000"/>
<circle cx="263.5" cy="673.5" r="32.5" fill="#FF8000"/>
<circle cx="186.5" cy="673.5" r="32.5" fill="#FF8000"/>
<circle cx="109.5" cy="673.5" r="32.5" fill="#FF8000"/>
<circle cx="32.5" cy="673.5" r="32.5" fill="#FF8000"/>
<circle cx="802.5" cy="442.5" r="32.5" transform="rotate(-90 802.5 442.5)" fill="#FF8000"/>
<circle cx="802.5" cy="750.5" r="32.5" transform="rotate(-90 802.5 750.5)" fill="#FF8000"/>
<circle cx="802.5" cy="827.5" r="32.5" transform="rotate(-90 802.5 827.5)" fill="#FF8000"/>
<circle cx="802.5" cy="904.5" r="32.5" transform="rotate(-90 802.5 904.5)" fill="#FF8000"/>
<circle cx="802.5" cy="981.5" r="32.5" transform="rotate(-90 802.5 981.5)" fill="#FF8000"/>
<circle cx="340.5" cy="673.5" r="32.5" fill="#FF8000"/>
<circle cx="802.5" cy="365.5" r="32.5" transform="rotate(-90 802.5 365.5)" fill="#FF8000"/>
<circle cx="802.5" cy="673.5" r="32.5" transform="rotate(-90 802.5 673.5)" fill="#FF8000"/>
<circle cx="417.5" cy="673.5" r="32.5" fill="#FF8000"/>
<circle cx="802.5" cy="288.5" r="32.5" transform="rotate(-90 802.5 288.5)" fill="#FF8000"/>
<circle cx="802.5" cy="596.5" r="32.5" transform="rotate(-90 802.5 596.5)" fill="#FF8000"/>
<circle cx="494.5" cy="673.5" r="32.5" fill="#FF8000"/>
<circle cx="802.5" cy="211.5" r="32.5" transform="rotate(-90 802.5 211.5)" fill="#FF8000"/>
<circle cx="802.5" cy="134.5" r="32.5" transform="rotate(-90 802.5 134.5)" fill="#FF8000"/>
<circle cx="802.5" cy="57.5" r="32.5" transform="rotate(-90 802.5 57.5)" fill="#FF8000"/>
<circle cx="802.5" cy="519.5" r="32.5" transform="rotate(-90 802.5 519.5)" fill="#FF8000"/>
<circle cx="263.5" cy="750.5" r="32.5" fill="#FF8000"/>
<circle cx="32.5" cy="750.5" r="32.5" fill="#FF8000"/>
<circle cx="879.5" cy="442.5" r="32.5" transform="rotate(-90 879.5 442.5)" fill="#FF8000"/>
<circle cx="879.5" cy="750.5" r="32.5" transform="rotate(-90 879.5 750.5)" fill="#FF8000"/>
<circle cx="879.5" cy="827.5" r="32.5" transform="rotate(-90 879.5 827.5)" fill="#FF8000"/>
<circle cx="879.5" cy="904.5" r="32.5" transform="rotate(-90 879.5 904.5)" fill="#FF8000"/>
<circle cx="879.5" cy="981.5" r="32.5" transform="rotate(-90 879.5 981.5)" fill="#FF8000"/>
<circle cx="956.5" cy="981.5" r="32.5" transform="rotate(-90 956.5 981.5)" fill="#FF8000"/>
<circle cx="340.5" cy="750.5" r="32.5" fill="#FF8000"/>
<circle cx="109.5" cy="750.5" r="32.5" fill="#FF8000"/>
<circle cx="879.5" cy="365.5" r="32.5" transform="rotate(-90 879.5 365.5)" fill="#FF8000"/>
<circle cx="879.5" cy="673.5" r="32.5" transform="rotate(-90 879.5 673.5)" fill="#FF8000"/>
<circle cx="417.5" cy="750.5" r="32.5" fill="#FF8000"/>
<circle cx="186.5" cy="750.5" r="32.5" fill="#FF8000"/>
<circle cx="879.5" cy="288.5" r="32.5" transform="rotate(-90 879.5 288.5)" fill="#FF8000"/>
<circle cx="879.5" cy="596.5" r="32.5" transform="rotate(-90 879.5 596.5)" fill="#FF8000"/>
<circle cx="494.5" cy="750.5" r="32.5" fill="#FF8000"/>
<circle cx="879.5" cy="211.5" r="32.5" transform="rotate(-90 879.5 211.5)" fill="#FF8000"/>
<circle cx="879.5" cy="134.5" r="32.5" transform="rotate(-90 879.5 134.5)" fill="#FF8000"/>
<circle cx="879.5" cy="519.5" r="32.5" transform="rotate(-90 879.5 519.5)" fill="#FF8000"/>
<circle cx="263.5" cy="827.5" r="32.5" fill="#FF8000"/>
<circle cx="32.5" cy="827.5" r="32.5" fill="#FF8000"/>
<circle cx="956.5" cy="442.5" r="32.5" transform="rotate(-90 956.5 442.5)" fill="#FF8000"/>
<circle cx="956.5" cy="750.5" r="32.5" transform="rotate(-90 956.5 750.5)" fill="#FF8000"/>
<circle cx="956.5" cy="827.5" r="32.5" transform="rotate(-90 956.5 827.5)" fill="#FF8000"/>
<circle cx="956.5" cy="904.5" r="32.5" transform="rotate(-90 956.5 904.5)" fill="#FF8000"/>
<circle cx="340.5" cy="827.5" r="32.5" fill="#FF8000"/>
<circle cx="109.5" cy="827.5" r="32.5" fill="#FF8000"/>
<circle cx="956.5" cy="365.5" r="32.5" transform="rotate(-90 956.5 365.5)" fill="#FF8000"/>
<circle cx="956.5" cy="673.5" r="32.5" transform="rotate(-90 956.5 673.5)" fill="#FF8000"/>
<circle cx="417.5" cy="827.5" r="32.5" fill="#FF8000"/>
<circle cx="186.5" cy="827.5" r="32.5" fill="#FF8000"/>
<circle cx="956.5" cy="288.5" r="32.5" transform="rotate(-90 956.5 288.5)" fill="#FF8000"/>
<circle cx="956.5" cy="596.5" r="32.5" transform="rotate(-90 956.5 596.5)" fill="#FF8000"/>
<circle cx="494.5" cy="827.5" r="32.5" fill="#FF8000"/>
<circle cx="956.5" cy="211.5" r="32.5" transform="rotate(-90 956.5 211.5)" fill="#FF8000"/>
<circle cx="956.5" cy="134.5" r="32.5" transform="rotate(-90 956.5 134.5)" fill="#FF8000"/>
<circle cx="956.5" cy="519.5" r="32.5" transform="rotate(-90 956.5 519.5)" fill="#FF8000"/>
<circle cx="263.5" cy="904.5" r="32.5" fill="#FF8000"/>
<circle cx="32.5" cy="904.5" r="32.5" fill="#FF8000"/>
<circle cx="1033.5" cy="442.5" r="32.5" transform="rotate(-90 1033.5 442.5)" fill="#FF8000"/>
<circle cx="1033.5" cy="750.5" r="32.5" transform="rotate(-90 1033.5 750.5)" fill="#FF8000"/>
<circle cx="1033.5" cy="827.5" r="32.5" transform="rotate(-90 1033.5 827.5)" fill="#FF8000"/>
<circle cx="1033.5" cy="904.5" r="32.5" transform="rotate(-90 1033.5 904.5)" fill="#FF8000"/>
<circle cx="340.5" cy="904.5" r="32.5" fill="#FF8000"/>
<circle cx="109.5" cy="904.5" r="32.5" fill="#FF8000"/>
<circle cx="1033.5" cy="365.5" r="32.5" transform="rotate(-90 1033.5 365.5)" fill="#FF8000"/>
<circle cx="1033.5" cy="673.5" r="32.5" transform="rotate(-90 1033.5 673.5)" fill="#FF8000"/>
<circle cx="417.5" cy="904.5" r="32.5" fill="#FF8000"/>
<circle cx="186.5" cy="904.5" r="32.5" fill="#FF8000"/>
<circle cx="1033.5" cy="288.5" r="32.5" transform="rotate(-90 1033.5 288.5)" fill="#FF8000"/>
<circle cx="1033.5" cy="596.5" r="32.5" transform="rotate(-90 1033.5 596.5)" fill="#FF8000"/>
<circle cx="494.5" cy="904.5" r="32.5" fill="#FF8000"/>
<circle cx="1033.5" cy="211.5" r="32.5" transform="rotate(-90 1033.5 211.5)" fill="#FF8000"/>
<circle cx="1033.5" cy="134.5" r="32.5" transform="rotate(-90 1033.5 134.5)" fill="#FF8000"/>
<circle cx="1033.5" cy="57.5" r="32.5" transform="rotate(-90 1033.5 57.5)" fill="#FF8000"/>
<circle cx="1033.5" cy="519.5" r="32.5" transform="rotate(-90 1033.5 519.5)" fill="#FF8000"/>
<circle cx="263.5" cy="981.5" r="32.5" fill="#FF8000"/>
<circle cx="32.5" cy="981.5" r="32.5" fill="#FF8000"/>
<circle cx="1110.5" cy="442.5" r="32.5" transform="rotate(-90 1110.5 442.5)" fill="#FF8000"/>
<circle cx="1187.5" cy="442.5" r="32.5" transform="rotate(-90 1187.5 442.5)" fill="#FF8000"/>
<circle cx="1264.5" cy="442.5" r="32.5" transform="rotate(-90 1264.5 442.5)" fill="#FF8000"/>
<circle cx="1110.5" cy="750.5" r="32.5" transform="rotate(-90 1110.5 750.5)" fill="#FF8000"/>
<circle cx="1187.5" cy="750.5" r="32.5" transform="rotate(-90 1187.5 750.5)" fill="#FF8000"/>
<circle cx="1264.5" cy="750.5" r="32.5" transform="rotate(-90 1264.5 750.5)" fill="#FF8000"/>
<circle cx="1110.5" cy="827.5" r="32.5" transform="rotate(-90 1110.5 827.5)" fill="#FF8000"/>
<circle cx="1187.5" cy="827.5" r="32.5" transform="rotate(-90 1187.5 827.5)" fill="#FF8000"/>
<circle cx="1264.5" cy="827.5" r="32.5" transform="rotate(-90 1264.5 827.5)" fill="#FF8000"/>
<circle cx="1110.5" cy="904.5" r="32.5" transform="rotate(-90 1110.5 904.5)" fill="#FF8000"/>
<circle cx="1187.5" cy="904.5" r="32.5" transform="rotate(-90 1187.5 904.5)" fill="#FF8000"/>
<circle cx="1264.5" cy="134.5" r="32.5" transform="rotate(-90 1264.5 134.5)" fill="#FF8000"/>
<circle cx="1341.5" cy="134.5" r="32.5" transform="rotate(-90 1341.5 134.5)" fill="#FF8000"/>
<circle cx="1341.5" cy="211.5" r="32.5" transform="rotate(-90 1341.5 211.5)" fill="#FF8000"/>
<circle cx="1341.5" cy="288.5" r="32.5" transform="rotate(-90 1341.5 288.5)" fill="#FF8000"/>
<circle cx="1341.5" cy="365.5" r="32.5" transform="rotate(-90 1341.5 365.5)" fill="#FF8000"/>
<circle cx="1341.5" cy="442.5" r="32.5" transform="rotate(-90 1341.5 442.5)" fill="#FF8000"/>
<circle cx="1341.5" cy="519.5" r="32.5" transform="rotate(-90 1341.5 519.5)" fill="#FF8000"/>
<circle cx="1341.5" cy="596.5" r="32.5" transform="rotate(-90 1341.5 596.5)" fill="#FF8000"/>
<circle cx="1341.5" cy="673.5" r="32.5" transform="rotate(-90 1341.5 673.5)" fill="#FF8000"/>
<circle cx="1418.5" cy="134.5" r="32.5" transform="rotate(-90 1418.5 134.5)" fill="#FF8000"/>
<circle cx="1418.5" cy="57.5" r="32.5" transform="rotate(-90 1418.5 57.5)" fill="#FF8000"/>
<circle cx="1418.5" cy="211.5" r="32.5" transform="rotate(-90 1418.5 211.5)" fill="#FF8000"/>
<circle cx="1418.5" cy="288.5" r="32.5" transform="rotate(-90 1418.5 288.5)" fill="#FF8000"/>
<circle cx="1418.5" cy="365.5" r="32.5" transform="rotate(-90 1418.5 365.5)" fill="#FF8000"/>
<circle cx="1418.5" cy="442.5" r="32.5" transform="rotate(-90 1418.5 442.5)" fill="#FF8000"/>
<circle cx="1418.5" cy="519.5" r="32.5" transform="rotate(-90 1418.5 519.5)" fill="#FF8000"/>
<circle cx="1418.5" cy="596.5" r="32.5" transform="rotate(-90 1418.5 596.5)" fill="#FF8000"/>
<circle cx="1495.5" cy="134.5" r="32.5" transform="rotate(-90 1495.5 134.5)" fill="#FF8000"/>
<circle cx="1495.5" cy="57.5" r="32.5" transform="rotate(-90 1495.5 57.5)" fill="#FF8000"/>
<circle cx="1495.5" cy="211.5" r="32.5" transform="rotate(-90 1495.5 211.5)" fill="#FF8000"/>
<circle cx="1495.5" cy="288.5" r="32.5" transform="rotate(-90 1495.5 288.5)" fill="#FF8000"/>
<circle cx="1572.5" cy="288.5" r="32.5" transform="rotate(-90 1572.5 288.5)" fill="#FF8000"/>
<circle cx="1495.5" cy="365.5" r="32.5" transform="rotate(-90 1495.5 365.5)" fill="#FF8000"/>
<circle cx="1572.5" cy="365.5" r="32.5" transform="rotate(-90 1572.5 365.5)" fill="#FF8000"/>
<circle cx="1572.5" cy="442.5" r="32.5" transform="rotate(-90 1572.5 442.5)" fill="#FF8000"/>
<circle cx="1495.5" cy="442.5" r="32.5" transform="rotate(-90 1495.5 442.5)" fill="#FF8000"/>
<circle cx="1495.5" cy="519.5" r="32.5" transform="rotate(-90 1495.5 519.5)" fill="#FF8000"/>
<circle cx="340.5" cy="981.5" r="32.5" fill="#FF8000"/>
<circle cx="109.5" cy="981.5" r="32.5" fill="#FF8000"/>
<circle cx="1110.5" cy="365.5" r="32.5" transform="rotate(-90 1110.5 365.5)" fill="#FF8000"/>
<circle cx="1187.5" cy="365.5" r="32.5" transform="rotate(-90 1187.5 365.5)" fill="#FF8000"/>
<circle cx="1264.5" cy="365.5" r="32.5" transform="rotate(-90 1264.5 365.5)" fill="#FF8000"/>
<circle cx="1110.5" cy="673.5" r="32.5" transform="rotate(-90 1110.5 673.5)" fill="#FF8000"/>
<circle cx="1187.5" cy="673.5" r="32.5" transform="rotate(-90 1187.5 673.5)" fill="#FF8000"/>
<circle cx="1264.5" cy="673.5" r="32.5" transform="rotate(-90 1264.5 673.5)" fill="#FF8000"/>
<circle cx="417.5" cy="981.5" r="32.5" fill="#FF8000"/>
<circle cx="186.5" cy="981.5" r="32.5" fill="#FF8000"/>
<circle cx="1110.5" cy="288.5" r="32.5" transform="rotate(-90 1110.5 288.5)" fill="#FF8000"/>
<circle cx="1187.5" cy="288.5" r="32.5" transform="rotate(-90 1187.5 288.5)" fill="#FF8000"/>
<circle cx="1264.5" cy="288.5" r="32.5" transform="rotate(-90 1264.5 288.5)" fill="#FF8000"/>
<circle cx="1110.5" cy="596.5" r="32.5" transform="rotate(-90 1110.5 596.5)" fill="#FF8000"/>
<circle cx="1187.5" cy="596.5" r="32.5" transform="rotate(-90 1187.5 596.5)" fill="#FF8000"/>
<circle cx="1264.5" cy="596.5" r="32.5" transform="rotate(-90 1264.5 596.5)" fill="#FF8000"/>
<circle cx="494.5" cy="981.5" r="32.5" fill="#FF8000"/>
<circle cx="494.5" cy="1058.5" r="32.5" fill="#FF8000"/>
<circle cx="417.5" cy="1058.5" r="32.5" fill="#FF8000"/>
<circle cx="340.5" cy="1058.5" r="32.5" fill="#FF8000"/>
<circle cx="263.5" cy="1058.5" r="32.5" fill="#FF8000"/>
<circle cx="494.5" cy="1135.5" r="32.5" fill="#FF8000"/>
<circle cx="417.5" cy="1135.5" r="32.5" fill="#FF8000"/>
<circle cx="340.5" cy="1135.5" r="32.5" fill="#FF8000"/>
<circle cx="263.5" cy="1135.5" r="32.5" fill="#FF8000"/>
<circle cx="494.5" cy="1212.5" r="32.5" fill="#FF8000"/>
<circle cx="417.5" cy="1212.5" r="32.5" fill="#FF8000"/>
<circle cx="340.5" cy="1212.5" r="32.5" fill="#FF8000"/>
<circle cx="494.5" cy="1289.5" r="32.5" fill="#FF8000"/>
<circle cx="417.5" cy="1289.5" r="32.5" fill="#FF8000"/>
<circle cx="1110.5" cy="211.5" r="32.5" transform="rotate(-90 1110.5 211.5)" fill="#FF8000"/>
<circle cx="1110.5" cy="134.5" r="32.5" transform="rotate(-90 1110.5 134.5)" fill="#FF8000"/>
<circle cx="1110.5" cy="57.5" r="32.5" transform="rotate(-90 1110.5 57.5)" fill="#FF8000"/>
<circle cx="1187.5" cy="211.5" r="32.5" transform="rotate(-90 1187.5 211.5)" fill="#FF8000"/>
<circle cx="1187.5" cy="134.5" r="32.5" transform="rotate(-90 1187.5 134.5)" fill="#FF8000"/>
<circle cx="1187.5" cy="57.5" r="32.5" transform="rotate(-90 1187.5 57.5)" fill="#FF8000"/>
<circle cx="1264.5" cy="211.5" r="32.5" transform="rotate(-90 1264.5 211.5)" fill="#FF8000"/>
<circle cx="1110.5" cy="519.5" r="32.5" transform="rotate(-90 1110.5 519.5)" fill="#FF8000"/>
<circle cx="1187.5" cy="519.5" r="32.5" transform="rotate(-90 1187.5 519.5)" fill="#FF8000"/>
<circle cx="1264.5" cy="519.5" r="32.5" transform="rotate(-90 1264.5 519.5)" fill="#FF8000"/>
<circle cx="340.5" cy="57.5" r="32.5" fill="#FF8000"/>
<circle cx="417.5" cy="57.5" r="32.5" fill="#FF8000"/>
<circle cx="494.5" cy="57.5" r="32.5" fill="#FF8000"/>
</svg>
